<?xml version="1.0" standalone="no"?><!DOCTYPE svg PUBLIC "-//W3C//DTD SVG 1.1//EN" "http://www.w3.org/Graphics/SVG/1.1/DTD/svg11.dtd"><svg t="1576640801280" class="icon" viewBox="0 0 1024 1024" version="1.1" xmlns="http://www.w3.org/2000/svg" p-id="2340" xmlns:xlink="http://www.w3.org/1999/xlink" width="200" height="200"><defs><style type="text/css"></style></defs><path d="M512 0a512 512 0 1 0 512 512A512 512 0 0 0 512 0z m194.56 630.153846a19.692308 19.692308 0 0 1-13.784615 5.907692 19.692308 19.692308 0 0 1-13.981539-5.907692L531.692308 482.461538V787.692308a19.692308 19.692308 0 0 1-39.384616 0V482.461538L345.206154 630.153846a19.692308 19.692308 0 0 1-27.766154-27.766154l177.230769-177.230769a19.692308 19.692308 0 0 1 35.052308 0l177.230769 177.230769a19.692308 19.692308 0 0 1-0.393846 27.766154z m19.692308-275.692308H297.550769a19.692308 19.692308 0 0 1 0-39.384615h428.898462a19.692308 19.692308 0 0 1 0 39.384615z" p-id="2341"></path></svg>