<svg xmlns="http://www.w3.org/2000/svg" xmlns:xlink="http://www.w3.org/1999/xlink" viewBox="0 0 313.82 313.82"><defs><style>.cls-1{isolation:isolate;}.cls-2{fill:url(#Neues_Verlaufsfeld_10);}.cls-3{fill:#235050;opacity:0.35;mix-blend-mode:overlay;}.cls-4{fill:#fff;}.cls-5{fill:url(#linear-gradient);}</style><radialGradient id="Neues_Verlaufsfeld_10" cx="157.54" cy="162.66" r="260.43" gradientUnits="userSpaceOnUse"><stop offset="0" stop-color="#64e13c"/><stop offset="1" stop-color="#009b32"/></radialGradient><linearGradient id="linear-gradient" x1="113.03" y1="167.22" x2="329.67" y2="383.86" gradientUnits="userSpaceOnUse"><stop offset="0" stop-color="#fff"/><stop offset="1" stop-color="#dedede"/></linearGradient></defs><title>whatsapp</title><g class="cls-1"><g id="Ebene_1" data-name="Ebene 1"><path class="cls-2" d="M172.5,355.26,177,358.2a129.66,129.66,0,1,0-38.35-38.37l2.95,4.55-16.48,47.35Z" transform="translate(-86.87 -96.19)"/><path class="cls-3" d="M339.15,157.74A129.62,129.62,0,0,0,138.69,319.83l2.95,4.55-16.48,47.35,47.34-16.47L177,358.2A129.62,129.62,0,0,0,339.15,157.74ZM336.08,338A125.37,125.37,0,0,1,179.4,354.56l-6.32-4.1L132.2,364.69l14.23-40.89-4.11-6.33A125.29,125.29,0,1,1,336.08,338Z" transform="translate(-86.87 -96.19)"/><path id="tel" class="cls-4" d="M281.07,285.73c33.36-34.52,40.87-56.77,41.49-71.41.75-17.93-13.43-36-21.36-36.31s-14.66-1.53-17.09,3.35-11.6,26.25-12.82,29.6-2.75,7.63.92,12.52a118.34,118.34,0,0,0,7.83,9.25c2.14,2.43,3.46,6-.5,11.19s-11.76,16.71-18.16,22.19-23.66,16.87-29.16,18.7-7.61,2.44-11-1.52-7.33-9.16-9.77-12.21-5.18-5.8-11.6-2.75-22,10.07-26.23,12.51-6.19,2.59-5.92,8.7a37,37,0,0,0,1.14,9.27c3.52,11.24,13.28,22,34.67,22.92C224.58,322.67,263.37,304,281.07,285.73Z" transform="translate(-86.87 -96.19)"/><path class="cls-4" d="M89.19,407.69l28-80.47a151.82,151.82,0,0,1,23-185.15A151.76,151.76,0,1,1,247.52,401.13h0a151.33,151.33,0,0,1-77.85-21.44Zm83.31-52.43L177,358.2a129.66,129.66,0,1,0-38.35-38.37l2.95,4.55-16.48,47.35Z" transform="translate(-86.87 -96.19)"/><path class="cls-5" d="M86.87,410l28.75-82.63a153.25,153.25,0,1,1,53.88,53.88Zm160.63-311A150.36,150.36,0,0,0,97.91,234.42a151,151,0,0,0,20.51,92.07l.34.57-.22.63-27,77.68,78.3-27.25.57.34a149.45,149.45,0,0,0,37,15.84,151.13,151.13,0,0,0,40.09,5.4,150.33,150.33,0,0,0,0-300.65Z" transform="translate(-86.87 -96.19)"/></g></g></svg>