<?xml version="1.0" encoding="utf-8"?>
<!-- Generator: Adobe Illustrator 22.0.0, SVG Export Plug-In . SVG Version: 6.00 Build 0)  -->
<svg version="1.1" id="图层_1" xmlns="http://www.w3.org/2000/svg" xmlns:xlink="http://www.w3.org/1999/xlink" x="0px" y="0px"
	 viewBox="0 0 200 200" style="enable-background:new 0 0 200 200;" xml:space="preserve">
<style type="text/css">
	.st0{fill:#DEB833;}
	.st1{fill:#6B400D;}
</style>
<path class="st0" d="M98.1,40.9v1.9l1.7-1c6.1-3.4,11.3-4.9,11.3-4.9l1.9-0.5l-1.4-1.4c-5-5.2-6.3-14.3-6.3-14.4l-0.3-1.8l-1.5,0.9
	c-3.3,2-10.5,4.2-10.6,4.2l-1.3,0.4l0.6,1.3C96.2,33.5,97.8,39.9,98.1,40.9z M73.1,51.3l1.8,0.9l0-2c0-2.6,1.8-5.4,1.9-5.4l1-1.5
	L76,42.9c-1.2-0.2-3.3-1.2-4-1.6l-1.2-0.6l-0.4,1.4c-1,3.5-2.3,5.8-2.4,5.8l-0.8,1.4l1.5,0.4C71.3,50.3,73.1,51.3,73.1,51.3z
	 M146.7,53.4l1.3,1.5l0.7-1.9c1.4-3.9,5.7-6.9,5.7-7l1.5-1l-1.5-1c-1.9-1.2-4.9-4.5-4.9-4.6l-0.9-1.1l-0.8,1.1
	c-2.8,3.7-5.3,6.1-6.2,6.9h-3.3l3,2.2C144.5,51,146.7,53.4,146.7,53.4L146.7,53.4z"/>
<path class="st0" d="M72.5,130.6h72.2l16.7-50.6c0.5-2,0.3-3.8-0.8-5.2c-1.1-1.4-2.7-2.1-4.7-2.1h-1.1c-2.7,5.1-11.3,16.4-37.6,25.3
	c-29.1,9.7-52.2,2.1-58.8-1.4l4.7,27.5C64.5,127.8,68.6,130.6,72.5,130.6L72.5,130.6z M74.6,153.2c-3.7,0-6.7,3-6.7,6.7
	c0,3.7,3,6.7,6.7,6.7s6.7-3,6.7-6.7C81.3,156.3,78.2,153.2,74.6,153.2z M139.3,153.2c-3.7,0-6.7,3-6.7,6.7c0,3.7,3,6.7,6.7,6.7
	s6.7-3,6.7-6.7C145.9,156.3,142.9,153.2,139.3,153.2z"/>
<path class="st1" d="M74.6,139.8c-8.9,0-16.1,7.2-16.1,16.1c0,8.9,7.2,16.1,16.1,16.1s16.1-7.2,16.1-16.1
	C90.6,147.1,83.4,139.8,74.6,139.8z M74.6,166.7c-5.9,0-10.6-4.8-10.6-10.8c0-6,4.7-10.8,10.6-10.8c5.9,0,10.6,4.8,10.6,10.8
	C85.2,161.9,80.4,166.7,74.6,166.7z"/>
<path class="st1" d="M139.3,139.8c-8.9,0-16.1,7.2-16.1,16.1c0,8.9,7.2,16.1,16.1,16.1c8.9,0,16.1-7.2,16.1-16.1
	C155.4,147.1,148.1,139.8,139.3,139.8z M139.3,166.7c-5.9,0-10.6-4.8-10.6-10.8c0-6,4.7-10.8,10.6-10.8c5.9,0,10.6,4.8,10.6,10.8
	C149.9,161.9,145.1,166.7,139.3,166.7z"/>
<path class="st1" d="M164.9,71.6c-2-2.7-5.4-4.3-9-4.3H63.8c-1.5,0-2.7,1.2-2.7,2.7c0,1.5,1.2,2.7,2.7,2.7H156c2,0,3.6,0.8,4.7,2.1
	c1.1,1.4,1.4,3.2,0.8,5.2l-16.7,50.6H72.5c-3.9,0-8-2.9-9.3-6.6l-4.7-27.5l-8.2-47.8c-0.2-1.5-1.7-2.5-3.1-2.2H33.6
	c-1.5,0-2.7,1.2-2.7,2.7c0,1.5,1.2,2.7,2.7,2.7h11.8l12.5,73.3c0,0.2,0.1,0.3,0.1,0.4c2,6,8.3,10.5,14.5,10.5h74.2
	c1.2,0,2.3-0.8,2.6-2l17.2-52.5C167.6,78,167,74.5,164.9,71.6z"/>
</svg>
