<svg id="图层_1" data-name="图层 1" xmlns="http://www.w3.org/2000/svg" viewBox="0 0 109.2 109.2"><defs><style>.cls-1{fill:#deb833;}</style></defs><title>filter</title><path class="cls-1" d="M151.5,65.7H132.7a3,3,0,0,1-3-3h0a3,3,0,0,1,3-3h18.8a3,3,0,0,1,3,3h0A2.89,2.89,0,0,1,151.5,65.7Z" transform="translate(-45.4 -45.4)"/><path class="cls-1" d="M99.4,65.6h-51a3,3,0,0,1-3-3h0a3,3,0,0,1,3-3h51a3,3,0,0,1,3,3h0A2.89,2.89,0,0,1,99.4,65.6Z" transform="translate(-45.4 -45.4)"/><path class="cls-1" d="M115.8,53.1a9.6,9.6,0,1,1-9.6,9.6,9.6,9.6,0,0,1,9.6-9.6m0-7.7a17.3,17.3,0,1,0,17.3,17.3,17.31,17.31,0,0,0-17.3-17.3Z" transform="translate(-45.4 -45.4)"/><path class="cls-1" d="M151.5,140.3H132.7a3,3,0,0,1-3-3h0a3,3,0,0,1,3-3h18.8a3,3,0,0,1,3,3h0A3,3,0,0,1,151.5,140.3Z" transform="translate(-45.4 -45.4)"/><path class="cls-1" d="M99.4,140.2h-51a3,3,0,0,1-3-3h0a3,3,0,0,1,3-3h51a3,3,0,0,1,3,3h0A3,3,0,0,1,99.4,140.2Z" transform="translate(-45.4 -45.4)"/><path class="cls-1" d="M115.8,127.6a9.6,9.6,0,1,1-9.6,9.6,9.6,9.6,0,0,1,9.6-9.6m0-7.6a17.3,17.3,0,1,0,17.3,17.3A17.31,17.31,0,0,0,115.8,120Z" transform="translate(-45.4 -45.4)"/><path class="cls-1" d="M48.5,103H67.3a3,3,0,0,0,3-3h0a3,3,0,0,0-3-3H48.5a3,3,0,0,0-3,3h0A2.89,2.89,0,0,0,48.5,103Z" transform="translate(-45.4 -45.4)"/><path class="cls-1" d="M100.6,102.9h51a3,3,0,0,0,3-3h0a3,3,0,0,0-3-3h-51a3,3,0,0,0-3,3h0A3,3,0,0,0,100.6,102.9Z" transform="translate(-45.4 -45.4)"/><path class="cls-1" d="M84.2,90.4a9.6,9.6,0,1,1-9.6,9.6,9.6,9.6,0,0,1,9.6-9.6m0-7.7A17.3,17.3,0,1,0,101.5,100,17.31,17.31,0,0,0,84.2,82.7Z" transform="translate(-45.4 -45.4)"/></svg>