<svg id="图层_1" data-name="图层 1" xmlns="http://www.w3.org/2000/svg" viewBox="0 0 40 40"><defs><style>.cls-1{fill:#d6b238;}.cls-2{fill:#fff;}</style></defs><title>footer-contact us-ins</title><circle class="cls-1" cx="20" cy="20" r="20"/><path class="cls-2" d="M23.73,29H17.27a5.3,5.3,0,0,1-5.3-5.3h0V17.27a5.3,5.3,0,0,1,5.3-5.3h6.46a5.3,5.3,0,0,1,5.3,5.3h0v6.46A5.3,5.3,0,0,1,23.73,29ZM20.5,16.11a4.42,4.42,0,1,0,4.39,4.51V20.5a4.4,4.4,0,0,0-4.39-4.39Zm4.41-1.44a1,1,0,0,0-1,1,1,1,0,0,0,1,1h.06a1,1,0,0,0,0-2ZM20.5,23.29a2.79,2.79,0,1,1,2.72-2.79,2.78,2.78,0,0,1-2.72,2.79Z" transform="translate(0)"/></svg>