<svg id="图层_1" data-name="图层 1" xmlns="http://www.w3.org/2000/svg" viewBox="0 0 40 40"><defs><style>.cls-1{fill:#d6b238;}.cls-2{fill:#fff;}</style></defs><title>footer-contact us-twitter</title><circle class="cls-1" cx="20" cy="20" r="20"/><path class="cls-2" d="M29.79,14.56a3.81,3.81,0,0,0,.7-1.3,7.93,7.93,0,0,1-2.62,1,4.1,4.1,0,0,0-1.35-.94A4,4,0,0,0,24.86,13a4.05,4.05,0,0,0-2.06.55A4.09,4.09,0,0,0,21.3,15a3.83,3.83,0,0,0-.55,2,4.73,4.73,0,0,0,.09.93,11.78,11.78,0,0,1-4.76-1.26,12,12,0,0,1-3.75-3,4.05,4.05,0,0,0-.55,2,3.94,3.94,0,0,0,.5,1.93,4.08,4.08,0,0,0,1.34,1.46,4,4,0,0,1-1.88-.52v.06a4,4,0,0,0,.45,1.8,4,4,0,0,0,1.18,1.42,4,4,0,0,0,1.68.76,4.39,4.39,0,0,1-1.84.07,3.91,3.91,0,0,0,1.45,2,4.15,4.15,0,0,0,2.39.82,8.59,8.59,0,0,1-2.39,1.27,8.42,8.42,0,0,1-2.74.45c-.34,0-.66,0-1,0A12,12,0,0,0,17.28,29a12.08,12.08,0,0,0,5-1A11.17,11.17,0,0,0,26,25.28a12,12,0,0,0,2.25-3.7A11.49,11.49,0,0,0,29,17.51V17a8.38,8.38,0,0,0,2.07-2.13,8.39,8.39,0,0,1-2.39.66A4.25,4.25,0,0,0,29.79,14.56Z"/></svg>