<svg id="图层_1" data-name="图层 1" xmlns="http://www.w3.org/2000/svg" viewBox="0 0 40 40"><defs><style>.cls-1{fill:#d6b238;}.cls-2{fill:#fff;}</style></defs><title>footer-contact us-snapchat</title><circle class="cls-1" cx="20" cy="20" r="20"/><path class="cls-2" d="M25.32,21.26l1.86-1.43a.84.84,0,0,0,.29-.93.85.85,0,0,0-1-.55l-1.31.24a.42.42,0,0,1-.49-.35.33.33,0,0,1,0-.14c.65-3.89-1.44-6.6-4.7-6.6s-5.35,2.71-4.7,6.6a.42.42,0,0,1-.49.49l-1.31-.24a.86.86,0,0,0-1,.56.83.83,0,0,0,.29.92l1.86,1.43a.42.42,0,0,1,.14.51,6.77,6.77,0,0,1-4.6,3.57c.1,1.41,2.55.31,3,.83a2.24,2.24,0,0,1,.43,1.26h1.7c1.28,0,2.82,1.68,4.68,1.68s3.4-1.68,4.68-1.68h1.7a2.24,2.24,0,0,1,.43-1.26c.42-.52,2.87.58,3-.83a6.73,6.73,0,0,1-4.59-3.57.41.41,0,0,1,.13-.51Z"/></svg>