<svg id="图层_1" data-name="图层 1" xmlns="http://www.w3.org/2000/svg" viewBox="0 0 19.52 22"><defs><style>.cls-1{fill:#2f3030;}</style></defs><title>home-top-search</title><path class="cls-1" d="M19.63,21.32,14.78,16a8.87,8.87,0,0,0,2.42-3,9,9,0,1,0-12,4h0a8.82,8.82,0,0,0,5.39.85.39.39,0,0,0,.28-.16.53.53,0,0,0,.08-.33.46.46,0,0,0-.17-.28.51.51,0,0,0-.32-.08,8.1,8.1,0,1,1,6-4.37,8.29,8.29,0,0,1-2.52,3h0l0,0s0,0,0,0h0s0,0,0,.05h0s0,0,0,.07h0a.2.2,0,0,0,0,.07h0v.08a.13.13,0,0,0,0,.06h0s0,0,0,.07a0,0,0,0,0,0,0,.11.11,0,0,1,0,.05v0h0l0,0L19,21.87a.45.45,0,0,0,.61,0,.38.38,0,0,0,.14-.29A.51.51,0,0,0,19.63,21.32Z" transform="translate(-0.24)"/></svg>