<svg id="图层_1" data-name="图层 1" xmlns="http://www.w3.org/2000/svg" viewBox="0 0 35.95 33.16"><defs><style>.cls-1{fill:#fff;}</style></defs><title>home-top-cart</title><path class="cls-1" d="M35.37,7.79A2.93,2.93,0,0,0,33,6.66H8.67A.7.7,0,0,0,8,7.37a.71.71,0,0,0,.71.72H33a1.52,1.52,0,0,1,1.23.56,1.49,1.49,0,0,1,.2,1.37L30,23.37H11a2.75,2.75,0,0,1-2.46-1.75L7.28,14.36,5.11,1.74a.68.68,0,0,0-.81-.57H.72a.72.72,0,1,0,0,1.43H3.83L7.12,21.94a.87.87,0,0,0,0,.1A4.24,4.24,0,0,0,11,24.8h19.6a.76.76,0,0,0,.7-.51l4.53-13.87A2.92,2.92,0,0,0,35.37,7.79Z" transform="translate(0 -1.15)"/><path class="cls-1" d="M11.52,25.8a4.26,4.26,0,1,0,4.24,4.25A4.24,4.24,0,0,0,11.52,25.8Zm0,7.1a2.85,2.85,0,1,1,2.8-2.85A2.83,2.83,0,0,1,11.52,32.9Z" transform="translate(0 -1.15)"/><path class="cls-1" d="M28.61,25.8a4.26,4.26,0,1,0,4.24,4.25A4.24,4.24,0,0,0,28.61,25.8Zm0,7.1a2.85,2.85,0,1,1,2.8-2.85A2.83,2.83,0,0,1,28.61,32.9Z" transform="translate(0 -1.15)"/></svg>