<?xml version="1.0" encoding="iso-8859-1"?>
<!-- Generator: Adobe Illustrator 22.0.0, SVG Export Plug-In . SVG Version: 6.00 Build 0)  -->
<svg version="1.1" id="&#x56FE;&#x5C42;_1" xmlns="http://www.w3.org/2000/svg" xmlns:xlink="http://www.w3.org/1999/xlink" x="0px"
	 y="0px" viewBox="0 0 200 200" style="enable-background:new 0 0 200 200;" xml:space="preserve">
<g>
	<path style="fill:#303030;" d="M161.255,103.654H38.921c-2.117,0-3.833-1.716-3.833-3.833v0c0-2.117,1.716-3.833,3.833-3.833
		h122.333c2.117,0,3.833,1.716,3.833,3.833v0C165.088,101.938,163.372,103.654,161.255,103.654z"/>
	<path style="fill:#303030;" d="M161.255,45.987H38.921c-2.117,0-3.833-1.716-3.833-3.833v0c0-2.117,1.716-3.833,3.833-3.833
		h122.333c2.117,0,3.833,1.716,3.833,3.833v0C165.088,44.271,163.372,45.987,161.255,45.987z"/>
	<path style="fill:#303030;" d="M161.255,160.833H38.921c-2.117,0-3.833-1.716-3.833-3.833l0,0c0-2.117,1.716-3.833,3.833-3.833
		h122.333c2.117,0,3.833,1.716,3.833,3.833l0,0C165.088,159.117,163.372,160.833,161.255,160.833z"/>
</g>
</svg>
